<?xml version="1.0" encoding="UTF-8" standalone="no"?>
<!-- Created with Inkscape (http://www.inkscape.org/) -->

<svg
   width="5.3972445in"
   height="5.3972445in"
   viewBox="0 0 137.09001 137.09001"
   version="1.1"
   id="svg5"
   inkscape:version="1.1.1 (3bf5ae0d25, 2021-09-20)"
   sodipodi:docname="secret santa.svg"
   xmlns:inkscape="http://www.inkscape.org/namespaces/inkscape"
   xmlns:sodipodi="http://sodipodi.sourceforge.net/DTD/sodipodi-0.dtd"
   xmlns:xlink="http://www.w3.org/1999/xlink"
   xmlns="http://www.w3.org/2000/svg"
   xmlns:svg="http://www.w3.org/2000/svg">
  <sodipodi:namedview
     id="namedview7"
     pagecolor="#ffffff"
     bordercolor="#666666"
     borderopacity="1.0"
     inkscape:pageshadow="2"
     inkscape:pageopacity="0.0"
     inkscape:pagecheckerboard="0"
     inkscape:document-units="mm"
     showgrid="false"
     showguides="true"
     inkscape:guide-bbox="true"
     inkscape:zoom="0.54929737"
     inkscape:cx="115.60223"
     inkscape:cy="334.06313"
     inkscape:window-width="1920"
     inkscape:window-height="1057"
     inkscape:window-x="1912"
     inkscape:window-y="-8"
     inkscape:window-maximized="1"
     inkscape:current-layer="layer1"
     units="in"
     fit-margin-top="0"
     fit-margin-left="0"
     fit-margin-right="0"
     fit-margin-bottom="0" />
  <defs
     id="defs2">
    <linearGradient
       inkscape:collect="always"
       id="linearGradient20726">
      <stop
         style="stop-color:#d6d6d6;stop-opacity:1"
         offset="0"
         id="stop20722" />
      <stop
         style="stop-color:#ffffff;stop-opacity:1"
         offset="1"
         id="stop20724" />
    </linearGradient>
    <linearGradient
       inkscape:collect="always"
       xlink:href="#linearGradient20726"
       id="linearGradient20720"
       x1="109.82211"
       y1="115.84306"
       x2="109.85133"
       y2="144.92039"
       gradientUnits="userSpaceOnUse" />
  </defs>
  <g
     inkscape:label="Layer 1"
     inkscape:groupmode="layer"
     id="layer1"
     transform="translate(-44.497711,-42.297417)">
    <circle
       style="fill:#27a064;fill-opacity:1;stroke-width:0.174582"
       id="path910"
       cx="113.04272"
       cy="110.84242"
       r="68.545006"
       inkscape:export-filename="C:\Users\Lizumi\Documents\secret santa\secret_santa.png"
       inkscape:export-xdpi="96"
       inkscape:export-ydpi="96" />
    <circle
       style="fill:#ffded5;fill-opacity:1;stroke-width:0.132292"
       id="path2688"
       cx="110.00407"
       cy="115.00971"
       r="29.972477"
       inkscape:export-filename="C:\Users\Lizumi\Documents\secret santa\secret_santa.png"
       inkscape:export-xdpi="96"
       inkscape:export-ydpi="96" />
    <path
       style="fill:url(#linearGradient20720);fill-opacity:1;fill-rule:nonzero;stroke:#ffffff;stroke-width:0.264583px;stroke-linecap:butt;stroke-linejoin:miter;stroke-opacity:1"
       d="m 109.82211,115.84306 c -7.09981,7.48097 -14.820868,13.09818 -23.841746,14.81594 -2.971161,19.078 5.886214,29.63065 23.841746,39.13177 20.12352,-10.89906 26.35569,-19.92913 23.84174,-39.13177 -10.21314,-1.64281 -17.08762,-8.14183 -23.84174,-14.81594 z"
       id="path8971"
       sodipodi:nodetypes="ccccc"
       inkscape:export-filename="C:\Users\Lizumi\Documents\secret santa\secret_santa.png"
       inkscape:export-xdpi="96"
       inkscape:export-ydpi="96" />
    <path
       style="fill:#ffffff;fill-opacity:1;stroke:none;stroke-width:0.264583px;stroke-linecap:butt;stroke-linejoin:miter;stroke-opacity:1"
       d="m 109.82211,115.84306 c 13.51397,9.08911 26.61089,14.04462 41.8082,9.28125 0.7414,0.0316 -5.48878,15.22657 -17.79616,9.0258 -1.20712,1.39643 -8.64049,3.97924 -13.8793,-1.87333 -8.67392,2.25033 -11.43331,-7.57188 -10.13274,-16.43376 z"
       id="path5534"
       sodipodi:nodetypes="cccccc"
       inkscape:export-filename="C:\Users\Lizumi\Documents\secret santa\secret_santa.png"
       inkscape:export-xdpi="96"
       inkscape:export-ydpi="96" />
    <path
       style="fill:#f14350;fill-opacity:1;stroke:none;stroke-width:0.264583px;stroke-linecap:butt;stroke-linejoin:miter;stroke-opacity:1"
       d="M 81.523654,94.288066 C 69.661794,68.869322 162.10117,15.506736 175.20962,110.30379 171.78271,105.4092 162.41933,83.919232 140.1677,95.010581 Z"
       id="path11656"
       sodipodi:nodetypes="cccc"
       inkscape:export-filename="C:\Users\Lizumi\Documents\secret santa\secret_santa.png"
       inkscape:export-xdpi="96"
       inkscape:export-ydpi="96" />
    <path
       id="circle10612"
       style="fill:#ffffff;fill-opacity:1;stroke-width:0.132292"
       d="m 142.62576,95.260997 c -1.3966,15.949423 -16.42961,0.228987 -32.98295,0.228991 -16.553341,10e-7 -29.640018,11.036402 -31.297086,-0.710667 C 77.0884,85.86606 93.20989,80.100055 109.76323,80.100057 c 16.55334,4e-6 33.52387,7.6084 32.86253,15.16094 z"
       sodipodi:nodetypes="sssss"
       inkscape:export-filename="C:\Users\Lizumi\Documents\secret santa\secret_santa.png"
       inkscape:export-xdpi="96"
       inkscape:export-ydpi="96" />
    <circle
       style="fill:#ffffff;fill-opacity:1;stroke:none;stroke-width:0.25;stroke-miterlimit:4;stroke-dasharray:none;stroke-opacity:1"
       id="path14088"
       cx="174.18607"
       cy="110.00274"
       r="4.0340362"
       inkscape:export-filename="C:\Users\Lizumi\Documents\secret santa\secret_santa.png"
       inkscape:export-xdpi="96"
       inkscape:export-ydpi="96" />
    <path
       style="fill:#ffffff;fill-opacity:1;stroke:none;stroke-width:0.264583px;stroke-linecap:butt;stroke-linejoin:miter;stroke-opacity:1"
       d="m 109.82211,115.8431 c -13.51397,9.08911 -26.61089,14.04462 -41.8082,9.28125 -0.7414,0.0316 5.48878,15.22657 17.79616,9.0258 1.20712,1.39643 8.64049,3.97924 13.8793,-1.87333 8.67392,2.25033 11.43331,-7.57188 10.13274,-16.43376 z"
       id="path22423"
       sodipodi:nodetypes="cccccc"
       inkscape:export-filename="C:\Users\Lizumi\Documents\secret santa\secret_santa.png"
       inkscape:export-xdpi="96"
       inkscape:export-ydpi="96" />
    <path
       style="fill:#ffffff;fill-opacity:1;stroke:none;stroke-width:0.264583px;stroke-linecap:butt;stroke-linejoin:miter;stroke-opacity:1"
       d="m 60.329911,81.644071 c -0.828829,3.210105 -2.172477,6.61304 -5.659691,6.984293 4.468083,0.941614 4.456353,3.850283 5.659691,7.947663 0.701615,-2.750027 0.908472,-6.656378 5.298437,-7.947663 -2.948512,-0.983381 -4.140293,-3.021743 -5.298437,-6.984293 z"
       id="path23738"
       sodipodi:nodetypes="ccccc" />
    <path
       style="fill:#ffffff;fill-opacity:1;stroke:none;stroke-width:0.177736px;stroke-linecap:butt;stroke-linejoin:miter;stroke-opacity:1"
       d="m 68.95244,94.167651 c -0.610237,1.96748 -1.599516,4.053147 -4.167025,4.280687 3.289687,0.57712 3.281051,2.359862 4.167025,4.871152 0.516574,-1.6855 0.668875,-4.079712 3.901047,-4.871152 -2.170882,-0.60272 -3.048347,-1.852027 -3.901047,-4.280687 z"
       id="path24620"
       sodipodi:nodetypes="ccccc" />
    <path
       style="fill:#ffffff;fill-opacity:1;stroke:none;stroke-width:0.144995px;stroke-linecap:butt;stroke-linejoin:miter;stroke-opacity:1"
       d="m 60.478014,102.95824 c -0.497825,1.60505 -1.304868,3.30651 -3.399414,3.49213 2.683691,0.47081 2.676646,1.92515 3.399414,3.97383 0.421416,-1.37501 0.545661,-3.32818 3.182432,-3.97383 -1.770982,-0.49169 -2.486809,-1.51086 -3.182432,-3.49213 z"
       id="path24622"
       sodipodi:nodetypes="ccccc" />
    <path
       style="fill:#ffffff;fill-opacity:1;stroke:none;stroke-width:0.264583px;stroke-linecap:butt;stroke-linejoin:miter;stroke-opacity:1"
       d="m 157.86928,107.89542 c -0.82882,3.21011 -2.17247,6.61304 -5.65969,6.9843 4.46809,0.94161 4.45636,3.85028 5.65969,7.94766 0.70162,-2.75003 0.90848,-6.65638 5.29844,-7.94766 -2.94851,-0.98338 -4.14029,-3.02175 -5.29844,-6.9843 z"
       id="path24647"
       sodipodi:nodetypes="ccccc" />
    <path
       style="fill:#ffffff;fill-opacity:1;stroke:none;stroke-width:0.177736px;stroke-linecap:butt;stroke-linejoin:miter;stroke-opacity:1"
       d="m 165.76931,121.86402 c -0.61024,1.96748 -1.59952,4.05315 -4.16703,4.28069 3.28969,0.57712 3.28105,2.35986 4.16703,4.87115 0.51657,-1.6855 0.66887,-4.07971 3.90104,-4.87115 -2.17088,-0.60272 -3.04834,-1.85203 -3.90104,-4.28069 z"
       id="path24847"
       sodipodi:nodetypes="ccccc" />
  </g>
</svg>
